<?xml version="1.0" encoding="UTF-8"?>
<svg id="Capa_2" data-name="Capa 2" xmlns="http://www.w3.org/2000/svg" viewBox="0 0 1797.36 946.31">
  <defs>
    <style>
      .cls-1 {
        fill: #d6ccc3;
        stroke-width: 0px;
      }
    </style>
  </defs>
  <g id="Capa_1-2" data-name="Capa 1">
    <g>
      <polygon class="cls-1" points="67.51 65.03 69.37 65.03 193.85 413.73 255.17 413.73 380.27 65.03 381.51 65.03 379.66 413.73 454.6 413.73 454.6 6.19 338.17 6.19 227.91 314.02 118.91 6.19 0 6.19 0 413.73 69.98 413.73 67.51 65.03"/>
      <path class="cls-1" d="M617.64,322.68h191.39l33.89,91.05h85.47L763.02,6.19h-90.42l-165.99,407.53h76.8l34.22-91.05ZM712.85,69.37h1.87l75.4,202.53h-153.4l76.13-202.53Z"/>
      <path class="cls-1" d="M1301.24,190.14c11.56-16.93,17.34-38.81,17.34-65.65,0-24.35-5.88-45.52-17.64-63.49-11.78-17.96-29.63-31.59-53.58-40.88-23.95-9.29-52.85-13.93-86.71-13.93h-178.37v407.53h73.69v-161.65h115.21c17.34,0,31.17,2.38,41.49,7.12,10.32,4.75,17.76,11.78,22.29,21.07,4.54,9.29,6.82,20.95,6.82,34.98v98.48h74.32v-99.71c0-16.51-2.17-31.17-6.51-43.97-4.34-12.8-11.56-23.24-21.68-31.29-10.12-8.05-23.22-13.32-39.32-15.79v-.63c23.54-4.54,41.08-15.27,52.64-32.2ZM1238.38,171.24c-5.99,10.13-15.49,17.97-28.49,23.54-13,5.58-28.8,8.36-47.39,8.36h-106.53V68.12h104.68c19.4,0,35.51,2.58,48.31,7.75,12.79,5.17,22.39,12.69,28.8,22.61,6.39,9.91,9.59,21.67,9.59,35.3,0,14.86-3,27.36-8.98,37.47Z"/>
      <path class="cls-1" d="M1732.02,365.11c-11.78.61-26.33,1.14-43.67,1.54v-1.24c20.22-6.59,38.61-17.64,55.12-33.13,16.51-15.49,29.63-34.38,39.34-56.68,9.69-22.29,14.56-47.27,14.56-74.93,0-40.88-9.09-76.39-27.26-106.53-18.17-30.14-43.46-53.37-75.86-69.68-32.43-16.3-68.44-24.46-108.09-24.46s-75.46,8.46-107.45,25.39c-32.01,16.94-57.29,41.09-75.87,72.46-18.58,31.39-27.87,68.12-27.87,110.24s9.19,80.51,27.56,112.73c18.37,32.2,43.66,56.78,75.87,73.7,32.2,16.93,68.32,25.39,108.39,25.39h208.1v-59.46c-7.44.41-14.66,1.24-21.68,2.48-15.69.83-29.42,1.54-41.18,2.17ZM1654.29,339.71c-20.65,12.19-43.36,18.28-68.14,18.28s-46.97-5.98-67.81-17.97c-20.85-11.97-37.27-29.42-49.24-52.34-11.97-22.91-17.96-49.44-17.96-79.59s5.98-55.64,17.96-77.73c11.97-22.08,28.27-39.01,48.93-50.78,20.64-11.76,43.36-17.66,68.12-17.66s48.1,5.89,68.75,17.66c20.64,11.78,36.95,28.7,48.93,50.78,11.97,22.09,17.97,48,17.97,77.73s-6.11,57.09-18.27,79.59c-12.19,22.51-28.6,39.85-49.24,52.02Z"/>
      <polygon class="cls-1" points="0 940.12 73.69 940.12 73.69 770.42 240.92 770.42 240.92 718.39 73.69 718.39 73.69 594.52 271.88 594.52 271.88 532.59 0 532.59 0 940.12"/>
      <path class="cls-1" d="M619.04,551.79c-32.01-16.93-68.04-25.39-108.09-25.39s-74.93,8.46-107.15,25.39c-32.2,16.94-57.59,41.09-76.17,72.46-18.58,31.39-27.87,68.12-27.87,110.24s9.29,79.9,27.87,112.11c18.58,32.2,43.97,56.88,76.17,74,32.21,17.14,67.92,25.71,107.15,25.71s75.66-8.56,108.09-25.71c32.4-17.13,57.69-41.71,75.86-73.7,18.17-31.99,27.26-69.47,27.26-112.41s-9.19-78.86-27.56-110.24c-18.38-31.37-43.57-55.52-75.56-72.46ZM628.63,814.08c-11.97,22.51-28.29,39.85-48.93,52.02-20.65,12.19-43.56,18.28-68.75,18.28s-47.49-5.98-68.12-17.97c-20.65-11.97-36.95-29.42-48.93-52.34-11.97-22.91-17.96-49.44-17.96-79.59s5.98-55.64,17.96-77.73c11.97-22.08,28.17-39.01,48.61-50.78,20.44-11.76,43.26-17.66,68.44-17.66s48.1,5.89,68.75,17.66c20.64,11.78,36.95,28.7,48.93,50.78,11.97,22.09,17.97,48,17.97,77.73s-5.99,57.09-17.97,79.59Z"/>
      <rect class="cls-1" x="790.28" y="532.59" width="73.7" height="407.53"/>
      <polygon class="cls-1" points="1304.96 532.59 1219.5 532.59 1120.4 685.56 1017.58 532.59 924.06 532.59 1066.52 731.39 919.72 940.12 1007.06 940.12 1111.11 781.56 1216.4 940.12 1309.3 940.12 1161.89 730.17 1304.96 532.59"/>
      <g>
        <path class="cls-1" d="M1424.86,891.49c1.42-1.9,2.12-4.37,2.12-7.42,0-2.65-.62-4.92-1.88-6.85-1.25-1.91-3.14-3.38-5.66-4.4-2.53-1.03-5.65-1.53-9.34-1.53h-18.67v44.99h5.74v-18.73h14.1c2.4,0,4.31.31,5.7.95,1.39.65,2.38,1.53,2.97,2.68.6,1.13.88,2.55.88,4.24v10.87h5.89v-10.87c0-1.96-.27-3.66-.82-5.13-.55-1.46-1.44-2.64-2.66-3.55-1.23-.92-2.87-1.48-4.92-1.71v-.14c2.96-.36,5.14-1.48,6.56-3.38ZM1416.52,892.25c-1.69.7-3.86,1.05-6.5,1.05h-12.86v-16.81h12.93c2.51,0,4.6.31,6.26.95,1.66.64,2.91,1.57,3.75,2.77.84,1.21,1.27,2.66,1.27,4.35,0,1.82-.39,3.38-1.17,4.68-.78,1.3-2,2.3-3.69,3.01Z"/>
        <path class="cls-1" d="M1410.04,846.54c-25.8,0-46.79,20.99-46.79,46.79s20.99,46.78,46.79,46.78,46.78-20.98,46.78-46.78-20.98-46.79-46.78-46.79ZM1410.04,933.47c-22.14,0-40.14-18.01-40.14-40.13s18.01-40.14,40.14-40.14,40.13,18.01,40.13,40.14-18.01,40.13-40.13,40.13Z"/>
      </g>
    </g>
  </g>
</svg>